<svg width="26" height="25" viewBox="0 0 26 25" fill="none" xmlns="http://www.w3.org/2000/svg">
<g clip-path="url(#clip0_38_117)">
<path d="M0.433693 10.1563C0.363761 10.1519 0.293901 10.1659 0.230382 10.1969C0.166863 10.228 0.111672 10.275 0.0697608 10.334C-0.112205 10.6138 0.0972673 10.8937 0.268654 11.0981C0.757424 11.6844 2.15179 13.6191 2.41416 13.9456C2.45377 13.9983 2.50424 14.0409 2.56178 14.0702C2.61931 14.0994 2.68242 14.1147 2.74636 14.1147C2.81029 14.1147 2.8734 14.0994 2.93094 14.0702C2.98847 14.0409 3.03894 13.9983 3.07855 13.9456C3.33669 13.6324 4.69932 11.7888 5.22194 11.1958C5.40391 10.9737 5.67474 10.6849 5.4822 10.3784C5.44075 10.3196 5.38643 10.2721 5.32381 10.24C5.2612 10.208 5.19215 10.1922 5.1225 10.194L3.80853 10.1829C4.21582 8.11397 5.24389 6.23644 6.74195 4.82568C8.24001 3.41492 10.1293 2.54516 12.1326 2.34394C14.136 2.14273 16.148 2.62065 17.8737 3.70762C19.5995 4.79459 20.948 6.43341 21.7216 8.38375L23.5857 7.5708C22.6393 5.16056 20.9706 3.13962 18.8323 1.81394C16.694 0.488258 14.2025 -0.0699875 11.7349 0.223717C9.26735 0.517422 6.95812 1.64708 5.15682 3.44168C3.35552 5.23628 2.16022 7.59811 1.75189 10.1696L0.433693 10.1563ZM11.9187 7.09768V5.94044H13.7722V7.07325C14.6205 7.12135 15.4635 7.24394 16.2923 7.43975V9.51656C15.8479 9.48102 15.3479 9.45215 14.7921 9.42994C14.2363 9.40772 13.7313 9.39662 13.2771 9.39662C13.0342 9.39448 12.7916 9.41231 12.5514 9.44993C11.5781 9.6143 11.5675 10.9559 12.8264 10.9559H13.7744C14.3574 10.935 14.9371 11.0574 15.4671 11.3135C15.8885 11.5244 16.2411 11.8613 16.4806 12.2819C16.7132 12.7049 16.8317 13.1863 16.8233 13.6746V14.1189C16.8233 14.9689 16.6632 15.6189 16.343 16.0691C16.0056 16.5313 15.5226 16.8525 14.9804 16.9753C14.5877 17.094 14.1842 17.1685 13.7765 17.1975V18.4524H11.9187V17.1886C11.068 17.1497 10.2227 17.0255 9.39447 16.8176V14.7453C10.4926 14.8363 11.614 14.8674 12.7143 14.8674C12.9817 14.8726 13.249 14.8495 13.512 14.7986C14.4938 14.592 14.3351 13.4281 13.3956 13.4281H12.6275C11.5061 13.4281 10.6555 13.1993 10.0758 12.7417C9.49603 12.2842 9.20615 11.5171 9.20615 10.4406V9.99634C9.20615 9.01013 9.52495 8.26973 10.1625 7.77515C10.6747 7.37745 11.2835 7.13955 11.9187 7.0888V7.09768ZM24.3178 14.0034C23.9337 16.6683 22.7058 19.1196 20.8321 20.9623C18.9584 22.8049 16.5481 23.9314 13.9899 24.16C11.4318 24.3887 8.87477 23.7062 6.73131 22.2226C4.58784 20.739 2.98282 18.5408 2.17507 15.9825L4.07936 15.3161C4.74039 17.3877 6.03645 19.1711 7.76507 20.3877C9.49368 21.6043 11.5575 22.1855 13.6341 22.0407C15.7106 21.8958 17.683 21.0329 19.243 19.5868C20.8031 18.1408 21.8629 16.193 22.2569 14.0478L20.8816 14.0789C20.8133 14.0829 20.745 14.0694 20.6828 14.0396C20.6205 14.0098 20.566 13.9646 20.524 13.9079C20.3124 13.608 20.5854 13.2993 20.761 13.0838C21.2667 12.473 22.5764 10.5872 22.824 10.2651C22.8625 10.2118 22.9121 10.1684 22.9688 10.138C23.0256 10.1076 23.0882 10.0911 23.152 10.0896C23.2161 10.0881 23.2797 10.1019 23.338 10.13C23.3962 10.1581 23.4477 10.1998 23.4884 10.2518C23.7613 10.5694 25.2107 12.4596 25.7164 13.0305C25.892 13.2282 26.11 13.5014 25.928 13.7857C25.8879 13.8464 25.834 13.8957 25.7712 13.9291C25.7084 13.9624 25.6387 13.9788 25.5683 13.9767L24.3093 14.0034H24.3178Z" fill="#EB6213"/>
</g>
<defs>
<clipPath id="clip0_38_117">
<rect width="26" height="24" fill="white" transform="translate(0 0.1875)"/>
</clipPath>
</defs>
</svg>
