<svg width="24" height="25" viewBox="0 0 24 25" fill="none" xmlns="http://www.w3.org/2000/svg">
<path d="M6.54562 9.95995C6.70219 9.48584 6.94125 9.33206 7.25625 9.34176L7.04859 9.19156C6.93609 7.65631 7.26609 4.99299 5.73656 4.48873C8.63062 0.590572 11.9662 -1.52915 14.4708 1.93832C17.4881 2.11101 18.6984 7.337 16.2919 9.53693L16.2778 9.6667C16.372 9.63553 16.4662 9.61561 16.5567 9.60794C16.7344 9.59313 16.9045 9.6248 17.0494 9.70859C17.2083 9.80106 17.3297 9.95076 17.392 10.1628C17.452 10.3656 17.4544 10.6246 17.3756 10.9429L16.9992 12.1068C16.9383 12.2958 16.8825 12.4286 16.7611 12.5339C16.6359 12.6417 16.4845 12.682 16.2502 12.6682C16.2113 12.6662 16.1723 12.6616 16.1344 12.6539C16.1157 12.9397 16.0576 13.2208 15.9619 13.4877C15.832 13.8515 15.6511 14.1483 15.473 14.4221C15.2714 14.7312 15.0581 15.0112 14.8355 15.2626C15.0089 15.9262 15.2325 16.4152 15.5006 16.7871C16.8619 17.8539 20.528 18.1047 21.8044 18.8803C23.647 20.0042 23.5964 22.1766 24 24.1875H0C0.399844 22.1945 0.358594 19.9863 2.19563 18.8803C3.81375 17.8983 7.24734 17.9611 8.61563 16.6885C8.8125 16.3523 8.97891 15.9497 9.10641 15.4695C8.81437 15.1384 8.54063 14.745 8.29125 14.2883L8.27437 14.2592C8.04938 13.8474 7.7775 13.3503 7.69219 12.6601L7.61906 12.6616C7.46578 12.6595 7.31812 12.6212 7.17984 12.5359C6.95766 12.398 6.80203 12.1629 6.69703 11.8978L6.68766 11.8712C6.56953 11.5601 6.51562 11.2055 6.50297 10.9373C6.49828 10.8372 6.49828 10.6384 6.50344 10.4484V10.4458C6.50719 10.2828 6.51516 10.125 6.52641 10.0366C6.53016 10.0095 6.53625 9.98396 6.54562 9.95995ZM15.1205 17.3006L15.0909 17.2622C14.7989 16.8796 14.5528 16.3963 14.3578 15.7663C14.0395 16.0499 13.6791 16.2905 13.2914 16.4693L13.2712 16.479H13.2708C12.7683 16.7181 12.2494 16.8336 11.7352 16.8208C11.4563 16.8142 11.1792 16.7697 10.9069 16.6875L10.8966 16.6844C10.4508 16.5551 10.0078 16.3222 9.58406 15.9661C9.40969 16.5138 9.18328 16.9674 8.91844 17.3419L10.5084 21.5742L11.4427 19.2261L10.9866 18.683C10.6439 18.1369 10.8431 17.5029 11.3967 17.4053C11.6386 17.3629 12.6173 17.3568 12.8414 17.4221C13.343 17.5683 13.4925 18.187 13.1986 18.683L12.7425 19.2261L13.6688 21.5742L15.1205 17.3006ZM9.61828 15.1451L9.63703 15.1624C10.3566 15.9124 11.1539 16.1945 11.9109 16.1623C12.8241 16.1229 13.687 15.6325 14.2945 14.954C14.3138 14.9325 14.3358 14.9131 14.3606 14.8983C14.5856 14.6526 14.8017 14.3726 15.0056 14.0599C15.1622 13.8193 15.3206 13.5603 15.427 13.2624C15.5306 12.9722 15.5897 12.6325 15.5573 12.2146C15.5536 12.1471 15.5681 12.0776 15.6047 12.0173C15.6464 11.9482 15.7116 11.9 15.786 11.8832C15.8603 11.8664 15.9378 11.8825 16.0012 11.9279C16.0514 11.9637 16.1025 11.9933 16.1536 12.0138C16.1977 12.0311 16.2403 12.0419 16.2792 12.0439C16.3612 12.0485 16.3983 12.0485 16.4034 12.0439C16.4123 12.0368 16.4306 11.9831 16.4578 11.8988L16.823 10.7718C16.8694 10.5817 16.8727 10.4448 16.8459 10.3539C16.8323 10.3079 16.8084 10.2767 16.7794 10.2598C16.7362 10.2348 16.673 10.2261 16.5994 10.2323C16.4391 10.2455 16.2516 10.3304 16.0852 10.4678C16.0242 10.5179 15.945 10.5419 15.8639 10.5265C15.7078 10.4974 15.6023 10.3355 15.6291 10.1653C15.8995 8.44514 15.7758 7.32422 15.4397 6.55992C15.1453 5.89013 14.6756 5.48448 14.1661 5.18151C13.0355 6.12514 12.2395 6.23294 11.4455 6.33972C10.7887 6.42811 10.1334 6.51649 9.26531 7.17095C8.85516 7.48005 8.58188 7.85403 8.44078 8.28829C8.29594 8.73431 8.28469 9.25338 8.40188 9.84142C8.41687 9.90069 8.41547 9.96557 8.39437 10.0279C8.34094 10.1899 8.17594 10.2736 8.02734 10.2154L7.76437 10.1117C7.425 9.98243 7.18453 9.92215 7.09172 10.1546C7.08422 10.2297 7.07906 10.3447 7.07625 10.4632V10.4657C7.07203 10.6369 7.07203 10.8157 7.07578 10.9056C7.08562 11.1176 7.12641 11.3935 7.215 11.6275L7.22531 11.6505C7.28484 11.8023 7.36406 11.931 7.4625 11.9918C7.51219 12.0225 7.5675 12.0368 7.62562 12.0373C7.69687 12.0383 7.77609 12.0219 7.86047 11.9949C7.88719 11.9846 7.91578 11.979 7.94578 11.9785C7.98339 11.9775 8.02082 11.9846 8.05593 11.9993C8.09103 12.0141 8.12312 12.0362 8.15037 12.0645C8.17762 12.0928 8.19949 12.1266 8.21474 12.1641C8.22998 12.2016 8.2383 12.242 8.23922 12.283C8.25469 13.0034 8.53828 13.5214 8.76656 13.9388L8.7825 13.968C9.0375 14.4349 9.31875 14.8268 9.61828 15.1451Z" fill="#EB6213"/>
</svg>
