<svg width="32" height="32" viewBox="0 0 32 32" fill="none" xmlns="http://www.w3.org/2000/svg">
<g clip-path="url(#clip0_66_56)">
<path d="M32 16C32 7.16316 24.8362 0 16 0C7.16379 0 0 7.16316 0 16C0 23.9858 5.85124 30.6054 13.4999 31.8055V20.6252H9.43724V16H13.4999V12.4752C13.4999 8.46498 15.8889 6.25025 19.5431 6.25025C21.2938 6.25025 23.1247 6.56592 23.1247 6.56592V10.5029H21.1075C19.1194 10.5029 18.5001 11.7366 18.5001 13.0018V16.0032H22.9371L22.2281 20.6283H18.4982V31.8055C26.1488 30.6054 32 23.9858 32 16Z" fill="#1877F2"/>
<path d="M22.2282 20.6252L22.9372 16H18.4982V12.9986C18.4982 11.7359 19.1176 10.4998 21.1056 10.4998H23.1228V6.56591C23.1228 6.56591 21.2919 6.25024 19.5412 6.25024C15.887 6.25024 13.498 8.46498 13.498 12.4752V16H9.43726V20.6252H13.4999V31.8055C15.1566 32.0648 16.8435 32.0648 18.5001 31.8055V20.6252H22.2282Z" fill="white"/>
</g>
<defs>
<clipPath id="clip0_66_56">
<rect width="32" height="32" fill="white"/>
</clipPath>
</defs>
</svg>
