<svg width="32" height="32" viewBox="0 0 32 32" fill="none" xmlns="http://www.w3.org/2000/svg">
<g clip-path="url(#clip0_66_51)">
<path fill-rule="evenodd" clip-rule="evenodd" d="M32 16.3556C32 15.04 31.8911 14.08 31.6554 13.0845H16.3265V19.0222H25.3242C25.1429 20.4978 24.1633 22.72 21.9863 24.2133L21.9559 24.4121L26.8025 28.0917L27.1383 28.1245C30.2221 25.3334 32 21.2267 32 16.3556Z" fill="#4285F4"/>
<path fill-rule="evenodd" clip-rule="evenodd" d="M16.3266 32.0001C20.7346 32.0001 24.4352 30.5778 27.1383 28.1245L21.9863 24.2133C20.6077 25.1555 18.7573 25.8133 16.3266 25.8133C12.0091 25.8133 8.34475 23.0223 7.03846 19.1646L6.84705 19.1805L1.80735 23.0027L1.74142 23.1823C4.42619 28.4089 9.94099 32.0001 16.3266 32.0001Z" fill="#34A853"/>
<path fill-rule="evenodd" clip-rule="evenodd" d="M7.03848 19.1645C6.69386 18.169 6.49432 17.1022 6.49432 16.0001C6.49432 14.8978 6.69376 13.8311 7.02036 12.8356L7.01125 12.6236L1.90846 8.73987L1.74154 8.81772C0.634995 10.9867 0.00012207 13.4222 0.00012207 16C0.00012207 18.5778 0.635093 21.0132 1.74154 23.1821L7.03858 19.1644" fill="#FBBC04"/>
<path fill-rule="evenodd" clip-rule="evenodd" d="M16.3266 6.18666C19.3923 6.18666 21.4602 7.48448 22.6394 8.56899L27.2471 4.16009C24.4173 1.5823 20.7346 0.00012207 16.3266 0.00012207C9.94099 0.00012207 4.42629 3.5912 1.74142 8.81783L7.02034 12.8357C8.34475 8.97795 12.0091 6.18675 16.3266 6.18675" fill="#EA4335"/>
</g>
<defs>
<clipPath id="clip0_66_51">
<rect width="32" height="32" fill="white"/>
</clipPath>
</defs>
</svg>
