<svg width="134" height="48" viewBox="0 0 134 48" fill="none" xmlns="http://www.w3.org/2000/svg">
<path d="M24.8372 0.872181C17.3502 3.01669 10.0425 7.71811 10.3563 10.1925C10.446 10.8111 10.9391 11.5947 11.4771 11.9246C12.3738 12.502 12.5083 12.4608 13.1359 11.2648C13.8532 9.98633 18.1123 7.01702 21.2506 5.53236C24.613 4.00646 29.1859 2.93421 32.4587 2.93421C37.48 2.93421 39.8561 4.08894 39.8561 6.64585C39.8561 7.92431 39.4526 8.46043 36.6281 11.0173C33.3554 13.9867 27.6168 17.822 26.496 17.822C26.1822 17.822 25.5993 18.1107 25.2407 18.4406C24.8372 18.7706 24.1199 19.0592 23.6267 19.0592C22.9094 19.0592 22.7749 18.8943 22.9991 18.1107C25.7338 9.12028 25.8235 7.5119 23.4474 7.5119C22.5059 7.5119 22.1921 8.13051 19.9505 14.3991C17.0363 22.6884 15.9155 27.4311 16.319 29.9467C16.588 31.4726 16.7673 31.7201 17.5295 31.5139C18.0227 31.4314 18.5158 31.019 18.6503 30.6478C18.7848 30.2767 19.1435 29.4106 19.4573 28.7508C19.7711 28.0497 20.3988 26.4825 20.8023 25.1628C21.2058 23.8844 21.7886 22.6059 22.1472 22.3585C22.5059 22.0698 24.2095 21.7811 25.9132 21.6986C29.9481 21.4512 31.5172 22.0698 34.7003 24.9979C36.8523 26.9774 37.1661 27.4723 37.1661 28.8745C37.1661 33.2872 30.8448 40.0094 24.3889 42.5251C22.3714 43.3087 20.2195 43.8448 19.0986 43.8448C18.0675 43.8448 16.319 43.9273 15.1982 44.051C11.3875 44.5046 4.93157 41.4941 3.49693 38.6485C3.04861 37.7412 2.64512 36.6689 2.64512 36.2565C2.64512 34.8131 4.66258 31.5551 7.44219 28.5858C9.01133 26.9362 10.2218 25.4928 10.0873 25.369C9.41482 24.7092 6.76971 26.0289 4.21425 28.2559C1.9278 30.3179 1.25531 31.2252 0.672487 33.0398C-0.224162 35.8441 -0.224162 36.339 0.672487 38.8547C1.25531 40.4631 1.88296 41.2054 3.7211 42.4838C9.23549 46.278 12.5531 47.309 18.7848 47.2677C22.3266 47.2265 23.5819 47.0203 26.1822 46.0718C34.252 43.0612 39.5423 37.4113 40.1699 31.019C40.5734 27.0599 38.1973 23.3895 33.6244 20.9151C32.3691 20.214 31.3379 19.5541 31.3379 19.3479C31.3379 19.183 31.8311 18.853 32.4587 18.6468C34.0727 18.0695 38.9146 15.0177 40.3941 13.6155C41.9632 12.1308 43.0392 10.1925 43.4875 8.13051C44.0255 5.5736 42.2322 2.89297 39.0491 1.44955C35.7763 -0.0351105 28.9618 -0.323792 24.8372 0.872181Z" fill="#EB6213"/>
<path d="M126.968 0.996109C126.744 1.28479 125.758 3.30558 124.816 5.45008C123.875 7.59459 122.53 10.5227 121.813 11.9661C121.14 13.3683 120.557 14.7292 120.557 14.9354C120.557 16.1726 111.367 33.3286 109.663 35.3082C109.035 36.0093 108.363 36.3804 108.094 36.2155C107.287 35.7618 107.78 29.1634 108.856 26.0703C109.349 24.5857 109.797 23.1422 109.797 22.8948C109.797 22.1112 107.646 20.9977 105.583 20.7091C103.566 20.4616 103.611 20.5029 104.193 17.2036C104.552 15.2241 104.014 14.6055 101.548 14.2343C100.203 14.0281 99.755 14.1931 98.6342 15.2241C96.6167 17.0799 96.4374 18.3584 97.8272 20.9153L98.9928 23.101L96.0339 28.3386C94.4199 31.2666 92.8956 33.4524 92.6266 33.3699C92.268 33.2874 92.1335 32.5038 92.2231 31.3903C92.3576 29.5758 94.3303 22.7711 95.0476 21.4514C95.4511 20.7503 94.7786 20.2967 93.2094 20.2967C92.1335 20.2967 89.3987 23.1835 85.9914 27.9674C83.3015 31.7615 82.0462 32.6276 82.36 30.5655C82.4496 30.0294 83.436 27.1013 84.5568 24.0495C86.2156 19.5131 86.4846 18.3584 86.0811 17.5335C85.4983 16.4201 82.898 16.1314 82.898 17.2036C82.898 17.5748 82.36 18.812 81.7323 19.9667C81.1047 21.1215 80.2528 23.0185 79.8942 24.1733C78.863 27.3488 73.3486 33.5761 72.1382 32.875C71.4657 32.5038 71.7795 30.8955 73.7521 24.9568C74.604 22.3999 75.2764 19.5543 75.2764 18.647C75.2764 17.2449 75.0971 16.9149 74.1108 16.585C72.3623 15.9664 69.9862 16.0901 68.9551 16.8737C68.4619 17.2861 67.1169 18.812 65.9513 20.2967C64.8305 21.7813 63.5752 23.3485 63.1268 23.8021C62.7233 24.2557 62.1405 25.328 61.8715 26.1528C61.1542 28.2148 55.5053 33.4524 52.6809 34.7308L50.4841 35.6794L49.6322 34.7721C49.1839 34.2359 48.9598 33.6586 49.0942 33.4524C49.2287 33.2462 49.4529 32.5863 49.5426 31.9677C49.6771 31.3903 50.2151 30.0707 50.7531 29.0396C51.6049 27.4725 52.098 27.0601 54.1603 26.3178C57.3434 25.163 59.1816 23.101 59.5851 20.2554C59.9437 17.7397 59.5851 17.2449 56.8054 16.3788C54.25 15.5952 53.7568 15.8014 51.2014 18.3584C45.8663 23.6784 43.3557 30.5655 45.418 34.2359C46.3595 35.8856 47.3458 36.3804 49.8564 36.3804C53.174 36.3804 54.5638 35.9268 56.6261 34.2772C58.8677 32.4626 59.1367 32.3801 59.1367 33.4111C59.1367 34.6483 60.1679 35.5969 61.8715 35.9268C63.9786 36.3804 64.6063 36.0093 66.5789 33.2462C67.4756 32.009 68.4619 31.0604 68.7309 31.1429C68.9999 31.2254 69.2689 31.9677 69.3585 32.7925C69.493 34.3184 70.7484 35.5556 72.1382 35.5556C72.5417 35.5556 73.8418 34.6071 75.0523 33.4936C76.2628 32.3389 77.3836 31.4316 77.5181 31.4316C77.6526 31.4316 77.8319 32.0914 77.8767 32.9162C78.0561 35.0195 78.6389 35.8443 80.6563 36.7929C82.2703 37.5764 82.4048 37.5764 83.3015 36.8753C83.7946 36.5042 85.1396 34.2359 86.3052 31.844C88.6365 27.1013 90.5195 24.0083 91.1471 24.0083C91.5506 24.0083 91.3713 25.0393 90.5195 28.1323C89.3987 32.2564 90.0712 37.5764 91.9093 38.4425C92.8956 38.9374 92.7163 39.3085 95.5407 31.844C98.5445 24.0083 99.1722 23.1835 101.997 23.1835C104.956 23.1835 105.404 23.4722 104.687 24.7506C103.162 27.5962 101.997 31.7203 102.041 34.4834C102.041 37.0815 102.176 37.4527 103.252 38.3187C105.135 39.7622 106.345 39.8859 108.542 38.7724C109.977 38.0713 110.829 37.2053 111.86 35.4319C112.577 34.1535 113.474 32.8338 113.743 32.5863C114.37 32.009 114.415 32.2564 114.281 34.937C114.191 37.2053 116.119 41.1231 117.509 41.4943C120.288 42.1541 122.351 41.0819 122.351 38.9374C122.351 37.2053 123.965 33.1637 125.265 31.5965C125.892 30.8542 126.386 30.0707 126.386 29.9057C126.386 29.6995 127.91 27.8024 129.748 25.6579C131.586 23.5134 133.11 21.5751 133.11 21.3689C133.066 20.3791 125.982 28.5448 123.023 32.9987C121.678 35.0195 120.512 36.3392 120.109 36.2567C119.257 36.133 118.674 33.3699 119.212 32.0502C119.481 31.4316 119.661 30.4418 119.661 29.8232C119.661 29.1634 119.93 28.0086 120.288 27.2251C120.647 26.4415 121.05 25.0806 121.185 24.1733C121.275 23.3072 121.902 21.3689 122.575 19.8843C124.323 16.0076 124.727 15.2241 125.489 14.3993C125.848 14.0281 126.251 13.2858 126.386 12.7496C126.52 12.2548 126.879 11.8424 127.148 11.8424C127.91 11.8424 130.062 9.16172 131.496 6.35737C132.662 4.08915 132.752 3.75922 132.214 2.56325C131.407 0.748665 127.999 -0.241108 126.968 0.996109ZM102.938 16.4201C103.162 17.0387 99.6205 20.4204 99.0825 20.0905C98.1859 19.5956 98.5893 18.5646 100.158 17.1211C101.638 15.7602 102.624 15.5128 102.938 16.4201ZM57.7021 19.1832C58.0608 20.7915 53.9362 25.5342 52.9947 24.6681C52.8153 24.5032 53.443 22.9773 54.3397 21.2864C55.595 18.977 56.2226 18.2346 56.8054 18.3171C57.2089 18.3996 57.6124 18.7708 57.7021 19.1832ZM72.3175 19.7605C72.9003 21.1627 71.1967 24.3382 67.3859 28.751C64.4718 32.0914 63.3958 33.04 63.1268 32.6276C62.2302 31.1429 64.4718 26.1528 67.6997 22.3174C70.5242 19.0182 71.7347 18.3584 72.3175 19.7605Z" fill="#EB6213"/>
</svg>
