<svg width="28" height="28" viewBox="0 0 28 28" fill="none" xmlns="http://www.w3.org/2000/svg">
<g clip-path="url(#clip0_42_180)">
<path d="M5.92448 0H22.0732C23.7025 0 25.1836 0.795192 26.2568 2.07347L26.307 2.13861C27.3506 3.41146 27.9977 5.15111 27.9977 7.05903V20.9437C27.9977 22.8842 27.3301 24.6483 26.2568 25.9265C25.1836 27.2048 23.7025 28 22.0732 28H5.92448C4.29753 28 2.81641 27.2048 1.74316 25.9265H1.74089C0.667643 24.6483 0 22.8842 0 20.941V7.05631C0 5.12126 0.665365 3.35718 1.74089 2.07618L1.74544 2.06804C2.82096 0.792478 4.2998 0 5.92448 0ZM9.41309 8.07134H18.5869C19.0996 8.07134 19.5189 8.57071 19.5189 9.18135C19.5189 9.79199 19.0996 10.2914 18.5869 10.2914H9.41309C8.90039 10.2914 8.48112 9.79199 8.48112 9.18135C8.48112 8.57071 8.90039 8.07134 9.41309 8.07134ZM9.41309 17.7086H18.5869C19.0996 17.7086 19.5189 18.208 19.5189 18.8186C19.5189 19.4293 19.0996 19.9287 18.5869 19.9287H9.41309C8.90039 19.9287 8.48112 19.4293 8.48112 18.8186C8.48112 18.208 8.90039 17.7086 9.41309 17.7086ZM9.41309 12.8913H18.5869C19.0996 12.8913 19.5189 13.3907 19.5189 14.0014C19.5189 14.612 19.0996 15.1114 18.5869 15.1114H9.41309C8.90039 15.1114 8.48112 14.612 8.48112 14.0014C8.48112 13.3907 8.90039 12.8913 9.41309 12.8913ZM22.0755 2.22545H5.92448C4.80794 2.22545 3.79395 2.76825 3.06022 3.64214L3.05566 3.64757C2.32422 4.51876 1.86849 5.72647 1.86849 7.05631V20.941C1.86849 22.2681 2.3265 23.4758 3.06022 24.3497L3.05794 24.3524C3.79395 25.2263 4.80794 25.7718 5.9222 25.7718H22.071C23.1829 25.7718 24.1969 25.2263 24.9329 24.3497C25.6689 23.4731 26.127 22.2654 26.127 20.941V7.05631C26.127 5.75361 25.6872 4.56761 24.9785 3.69371L24.9352 3.64486C24.2015 2.77096 23.1898 2.22545 22.0755 2.22545Z" fill="#EB6213"/>
</g>
<defs>
<clipPath id="clip0_42_180">
<rect width="28" height="28" fill="white"/>
</clipPath>
</defs>
</svg>
