<svg width="60" height="60" viewBox="0 0 60 60" fill="none" xmlns="http://www.w3.org/2000/svg">
<g clip-path="url(#clip0_38_94)">
<path d="M30 0C38.2828 0 45.784 3.35859 51.2121 8.78789C56.6414 14.216 60 21.7172 60 30C60 38.2828 56.6414 45.784 51.2121 51.2121C45.784 56.6414 38.2828 60 30 60C21.7172 60 14.216 56.6414 8.78789 51.2121C3.35859 45.784 0 38.2828 0 30C0 21.7172 3.35859 14.216 8.78789 8.78789C14.216 3.35859 21.7172 0 30 0Z" fill="#999999"/>
<path d="M30 2.28284C37.6512 2.28284 44.5852 5.38596 49.5996 10.4004L49.7274 10.5387C54.6656 15.5449 57.716 22.418 57.716 29.9989C57.716 37.6524 54.6117 44.584 49.5973 49.5985L49.4578 49.7262C44.4516 54.6668 37.575 57.7172 30 57.7172C22.3559 57.7172 15.4242 54.6106 10.4086 49.5926C5.3883 44.584 2.28284 37.6524 2.28284 29.9989C2.28284 22.3453 5.38596 15.4149 10.4004 10.4004C15.4149 5.38596 22.3465 2.28284 30 2.28284Z" fill="white"/>
<path d="M30 4.6394C34.6266 4.6394 38.9637 5.87925 42.6996 8.04253H17.3004C21.0363 5.87925 25.3734 4.6394 30 4.6394ZM48.2625 12.4066C49.3359 13.5175 50.3039 14.7292 51.1594 16.0218H8.83945C9.69375 14.7222 10.6664 13.507 11.7363 12.4066H48.2625ZM53.4668 20.3718C53.9473 21.5402 54.341 22.7484 54.6434 23.9953H5.35664C5.6625 22.7507 6.06328 21.546 6.5332 20.3718H53.4668ZM55.3043 28.35C55.3395 28.8984 55.3594 29.448 55.3594 29.9988C55.3594 30.6632 55.3336 31.323 55.2832 31.9734H4.7168C4.66758 31.3183 4.64062 30.6539 4.64062 29.9988C4.64062 29.4445 4.66055 28.8949 4.6957 28.35H55.3043ZM54.5637 36.3257C54.2462 37.5641 53.834 38.7763 53.3309 39.9515H6.66914C6.17109 38.7773 5.75156 37.5621 5.43633 36.3257H54.5637ZM50.9426 44.3015C50.0484 45.607 49.0383 46.8281 47.9215 47.9425H12.0785C10.9652 46.8281 9.95156 45.607 9.05742 44.3015H50.9426ZM42.1219 52.2796C38.5055 54.2449 34.3687 55.3605 30 55.3605C25.609 55.3605 21.4781 54.2437 17.8781 52.2796H42.1219Z" fill="#B22234"/>
<path d="M31.425 4.68042V32.1503H4.7332C4.67109 31.439 4.64062 30.7253 4.64062 29.9988C4.64062 15.9937 15.9938 4.6394 30 4.6394C30.4781 4.6394 30.9539 4.65464 31.425 4.68042Z" fill="#3C3B6E"/>
<path d="M5.95425 21.921L6.06909 22.2796L5.88159 22.1414L5.95425 21.921ZM28.1367 27.7699L29.0753 30.6597L26.6191 28.8726H29.6531L27.1957 30.6597L28.1367 27.7699ZM28.1367 22.1847L29.0753 25.0699L26.6191 23.2863H29.6531L27.1957 25.0699L28.1367 22.1847ZM28.1367 16.596L29.0753 19.4847L26.6191 17.6964H29.6531L27.1957 19.4847L28.1367 16.596ZM28.1367 11.0109L29.0753 13.896L26.6191 12.1113H29.6531L27.1957 13.896L28.1367 11.0109ZM28.1367 5.42456L29.0753 8.31089L26.6191 6.52495H29.6531L27.1957 8.31089L28.1367 5.42456ZM24.846 24.9773L25.7871 27.8648L23.3285 26.0777H26.3625L23.9179 27.8648L24.846 24.9773ZM24.846 19.391L25.7871 22.2796L23.3285 20.4914H26.3625L23.9179 22.2796L24.846 19.391ZM24.846 13.8058L25.7871 16.691L23.3285 14.9062H26.3625L23.9179 16.691L24.846 13.8058ZM24.846 8.21597L25.7871 11.1046L23.3285 9.31753H26.3625L23.9179 11.1046L24.846 8.21597ZM21.5683 27.7699L22.5093 30.6597L20.0507 28.8726H23.0871L20.6296 30.6597L21.5683 27.7699ZM21.5683 22.1847L22.5093 25.0699L20.0507 23.2863H23.0871L20.6296 25.0699L21.5683 22.1847ZM21.5683 16.596L22.5093 19.4847L20.0507 17.6964H23.0871L20.6296 19.4847L21.5683 16.596ZM21.5683 11.0109L22.5093 13.896L20.0507 12.1113H23.0871L20.6296 13.896L21.5683 11.0109ZM21.7605 6.00933L22.5093 8.31089L20.1738 6.61401L20.3917 6.52495H23.0871L20.6296 8.31089L21.3292 6.16167L21.7605 6.00933ZM18.2789 24.9773L19.2175 27.8648L16.7601 26.0777H19.7964L17.3378 27.8648L18.2789 24.9773ZM18.2789 19.391L19.2175 22.2796L16.7601 20.4914H19.7964L17.3378 22.2796L18.2789 19.391ZM18.2789 13.8058L19.2175 16.691L16.7601 14.9062H19.7964L17.3378 16.691L18.2789 13.8058ZM18.2789 8.21597L19.2175 11.1046L16.7601 9.31753H19.7964L17.3378 11.1046L18.2789 8.21597ZM15.0011 27.7699L15.9292 30.6597L13.4847 28.8726H16.5187L14.0601 30.6597L15.0011 27.7699ZM15.0011 22.1847L15.9292 25.0699L13.4847 23.2863H16.5187L14.0601 25.0699L15.0011 22.1847ZM15.0011 16.596L15.9292 19.4847L13.4847 17.6964H16.5187L14.0601 19.4847L15.0011 16.596ZM15.0011 11.0109L15.9292 13.896L13.4847 12.1113H16.5187L14.0601 13.896L15.0011 11.0109ZM11.7105 24.9773L12.6515 27.8648L10.1941 26.0777H13.2292L10.7718 27.8648L11.7105 24.9773ZM11.7105 19.391L12.6515 22.2796L10.1941 20.4914H13.2292L10.7718 22.2796L11.7105 19.391ZM11.7105 13.8058L12.6515 16.691L10.1941 14.9062H13.2292L10.7718 16.691L11.7105 13.8058ZM8.42222 27.7699L9.36089 30.6597L6.9023 28.8726H9.95151L7.4812 30.6597L8.42222 27.7699ZM8.42222 22.1847L9.36089 25.0699L6.9023 23.2863H9.95151L7.4812 25.0699L8.42222 22.1847ZM8.43862 16.6464L9.36089 19.4847L7.56089 18.1757L7.8187 17.6964H9.95151L7.4812 19.4847L8.37183 16.7519L8.43862 16.6464ZM5.14448 24.9773L6.06909 27.8648L4.82339 26.9542L4.76831 27.4546L6.66089 26.0777H4.94058C4.99683 25.7238 5.06011 25.3722 5.13042 25.0242L5.14448 24.9773ZM6.48511 20.4914H6.66089L6.41011 20.6753L6.48511 20.4914Z" fill="white"/>
</g>
<defs>
<clipPath id="clip0_38_94">
<rect width="60" height="60" fill="white"/>
</clipPath>
</defs>
</svg>
