<svg width="60" height="60" viewBox="0 0 60 60" fill="none" xmlns="http://www.w3.org/2000/svg">
<g clip-path="url(#clip0_38_88)">
<path d="M29.9999 -0.000244141C38.2832 -0.000244141 45.7839 3.35882 51.2123 8.78741C56.6409 14.2159 60 21.7166 60 29.9999C60 38.2832 56.6409 45.7839 51.2123 51.2123C45.7839 56.6409 38.2832 60 29.9999 60C21.7174 60 14.2159 56.6409 8.78741 51.2123C3.35882 45.7839 -0.000244141 38.2822 -0.000244141 29.9999C-0.000244141 21.7166 3.35882 14.2159 8.78741 8.78741C14.2159 3.35882 21.7166 -0.000244141 29.9999 -0.000244141Z" fill="#4D4D4D"/>
<path d="M30.0001 2.29639C37.6498 2.29639 44.5762 5.39787 49.5895 10.4108C54.6023 15.424 57.7039 22.3503 57.7039 30.0001C57.7039 37.6498 54.6023 44.5762 49.5891 49.5891C44.5762 54.6023 37.6498 57.7039 30.0001 57.7039C22.3503 57.7039 15.424 54.6023 10.4108 49.5895C5.39787 44.5762 2.29639 37.6498 2.29639 30.0001C2.29639 22.3503 5.39787 15.424 10.4108 10.4108C15.424 5.39787 22.3503 2.29639 30.0001 2.29639Z" fill="white"/>
<path d="M30.0001 4.63989C44.0061 4.63989 55.3604 15.9937 55.3604 30.0001C55.3604 44.0061 44.0061 55.3604 30.0001 55.3604C15.9937 55.3604 4.63989 44.0061 4.63989 30.0001C4.63989 15.9937 15.9937 4.63989 30.0001 4.63989Z" fill="#DA251D"/>
<path d="M29.5631 34.5179L35.5688 38.8793L33.2758 31.8172L39.2841 27.4537H31.8586L29.5631 20.3829L27.2675 27.4537H19.842L25.8504 31.8172L23.5574 38.8793L29.5631 34.5179Z" fill="#FFFF00"/>
</g>
<defs>
<clipPath id="clip0_38_88">
<rect width="60" height="60" fill="white"/>
</clipPath>
</defs>
</svg>
